<svg xmlns="http://www.w3.org/2000/svg" width="48" height="48" viewBox="0 0 48 48" aria-hidden="true">
  <path fill="#FFC107" d="M43.6 20.5H42V20H24v8h11.3C33.6 31.9 29.2 35 24 35c-6.6 0-12-5.4-12-12S17.4 11 24 11c3 0 5.7 1.1 7.8 3l5.7-5.7C34 5.4 29.3 3.5 24 3.5 16.1 3.5 9.2 7.9 6.3 14.7z"/>
  <path fill="#FF3D00" d="M6.3 14.7l6.6 4.8C14.4 15.8 18.8 13 24 13c3 0 5.7 1.1 7.8 3l5.7-5.7C34 5.4 29.3 3.5 24 3.5 16.1 3.5 9.2 7.9 6.3 14.7z"/>
  <path fill="#4CAF50" d="M24 46.5c5.1 0 9.8-1.8 13.4-4.8l-6.2-5.3c-2 1.4-4.6 2.3-7.2 2.3-5.1 0-9.4-3.2-11-7.7l-6.6 5.1C9.2 42.1 16.1 46.5 24 46.5z"/>
  <path fill="#1976D2" d="M43.6 20.5H42V20H24v8h11.3c-1.1 3.2-3.6 5.8-6.7 7.2l6.2 5.3c3.6-2.6 6-6.7 6-12 0-1.5-.2-3-.5-4.5z"/>
</svg>
